<svg data-name="Слой 1" xmlns="http://www.w3.org/2000/svg" viewBox="0 0 119.925 92.504" fill="white">
  <path d="M24.635 28.95h-7.442a3.674 3.674 0 100 7.35h7.442a3.674 3.674 0 000-7.35z" fill="none"/>
  <path d="M37.963 90.504q-8.168 0-16.333-.008c-4.412-.005-9.072-.375-13.265-3.026C.893 82.746.015 75.183.005 69.904q-.024-13.02.035-26.04l.013-5.253c-.001-1.863-.001-3.789.13-5.707.718-10.5 8.039-17.334 18.65-17.413.647-.005 1.296-.016 1.944-.028 1.765-.031 3.588-.063 5.411.042a1.976 1.976 0 002.23-1.375c1.96-3.943 4.044-7.702 7.95-10.348C41.612.232 47.363-.127 52.781.03c6.74.184 12.392.275 18.068.113 9.146-.272 15.338 3.404 18.833 11.213 1.49 3.325 4.156 4.708 8.153 4.208 6.655-.817 12.221.903 16.546 5.116a17.07 17.07 0 015.446 12.258c.087 11.943.15 24.8.031 37.894-.094 10.11-4.254 15.915-13.486 18.825a25.706 25.706 0 01-7.57.804l-.16.001c-9.627.048-19.415.041-28.881.035l-8.173-.004-1.83.01-10.893.001-10.903.001zM23.377 19.433c-.827 0-1.666.014-2.528.03-.663.012-1.325.023-1.987.028-8.487.063-14.116 5.307-14.69 13.686-.12 1.781-.12 3.638-.12 5.433l-.012 5.266q-.038 13.01-.035 26.02c.013 6.984 2.017 11.361 6.497 14.193 3.15 1.991 6.727 2.402 11.132 2.407q13.617.015 27.231.007l10.894-.012 10.006.005c9.461.006 19.242.013 28.859-.035h.161a22.462 22.462 0 006.385-.62c7.514-2.368 10.612-6.728 10.69-15.047.118-13.064.055-25.901-.032-37.828a12.984 12.984 0 00-4.237-9.422c-3.461-3.372-7.791-4.685-13.267-4.01-5.727.7-10.086-1.62-12.29-6.545-2.838-6.337-7.516-9.052-15.07-8.85-5.772.167-11.486.076-18.291-.112-4.756-.127-9.755.15-14.063 3.068-3.105 2.103-4.83 5.237-6.61 8.816a5.937 5.937 0 01-6.043 3.588 44.358 44.358 0 00-2.58-.066zm36.865 56.62h-.077c-13.117-.044-23.36-10.08-23.32-22.847a23.114 23.114 0 0123.209-23.428h.06c12.462.032 22.966 10.73 22.938 23.364a22.84 22.84 0 01-6.848 16.221 22.545 22.545 0 01-15.962 6.69zm-.187-42.275a19.155 19.155 0 00-19.21 19.442c-.034 10.523 8.459 18.797 19.334 18.834h.063a18.57 18.57 0 0013.142-5.527 18.863 18.863 0 005.668-13.394c.023-10.466-8.654-19.33-18.948-19.355z"/>
  <path d="M26.635 39.299h-7.442a4.674 4.674 0 110-9.349h7.442a4.674 4.674 0 010 9.349zm-7.442-7.349a2.674 2.674 0 100 5.349h7.442a2.674 2.674 0 000-5.349z"/>
</svg>