<svg id="Слой_1" data-name="Слой 1" xmlns="http://www.w3.org/2000/svg" viewBox="0 0 31 31"><defs><style>.cls-1,.cls-2{fill:#fff;}.cls-1{fill-rule:evenodd;}</style></defs><path class="cls-1" d="M9.822,20.432V12.019H7.75V9.864h4.932V20.432Z" transform="translate(0 0)"/><path class="cls-2" d="M22.705,12.638a2.41746,2.41746,0,0,1-1.296,2.14,2.8308,2.8308,0,0,1,1.841,2.613c0,1.86-1.65,3.04-4.227,3.04-2.578,0-4.228-1.165-4.228-2.995a2.88678,2.88678,0,0,1,1.96-2.657,2.60134,2.60134,0,0,1-1.43-2.214c0-1.654,1.444-2.701,3.683-2.701C21.276,9.864,22.705,10.941,22.705,12.638ZM17.27,17.17c0,.87.619,1.358,1.753,1.358s1.767-.472,1.767-1.358c0-.856-.633-1.343-1.767-1.343S17.27,16.314,17.27,17.17Zm.265-4.384c0,.738.53,1.151,1.488,1.151.957,0,1.487-.413,1.487-1.15,0-.768-.53-1.196-1.487-1.196C18.065,11.591,17.535,12.019,17.535,12.786Z" transform="translate(0 0)"/><path class="cls-1" d="M27.607,11.4A12.77643,12.77643,0,1,1,19.6,3.394V.55A15.4912,15.4912,0,1,0,30.45,11.4Z" transform="translate(0 0)"/><path class="cls-1" d="M26.735,4.26V1.41H24.68V4.26H21.84V6.309h2.84v2.85h2.055V6.31h2.856V4.26Z" transform="translate(0 0)"/></svg>