<svg id="Режим_изоляции" data-name="Режим изоляции" xmlns="http://www.w3.org/2000/svg" viewBox="0 0 338.44189 58.77411"><defs><style>.cls-1{fill:#ff0026;}.cls-2{fill:#f7e800;}</style></defs><path class="cls-1" d="M163.46239,926.46361a4.85871,4.85871,0,1,0,0-9.712h-9.137v9.712Zm-9.137-31.279v9.054h7.573a4.36249,4.36249,0,0,0,4.692-4.527,4.409,4.409,0,0,0-4.692-4.527Zm28.893,27.576c0,5.103-1.729,9.219-5.268,12.265-3.54,3.046-8.232,4.609-14.076,4.609h-24.284v-57.621h22.72c11.523,0,19.014,6.257,19.014,16.381a13.80135,13.80135,0,0,1-5.35,11.442c4.857,2.881,7.244,7.162,7.244,12.924" transform="translate(-139.59039 -882.01361)"/><path class="cls-1" d="M217.2162,914.61171c-1.071-3.87-3.705-5.763-7.738-5.763-4.198,0-6.915,1.893-8.067,5.763Zm-15.64,9.465c1.399,3.375,4.445,5.022,9.219,5.022a10.65509,10.65509,0,0,0,7.491-2.881l9.878,6.915c-4.034,5.103-9.96,7.655-17.698,7.655-6.997,0-12.595-2.058-16.792-6.092a20.83932,20.83932,0,0,1-6.257-15.557,21.35451,21.35451,0,0,1,6.174-15.558c4.116-4.198,9.384-6.256,15.723-6.256a20.34649,20.34649,0,0,1,15.228,6.174,21.22423,21.22423,0,0,1,6.009,15.475,20.1765,20.1765,0,0,1-.576,5.103Z" transform="translate(-139.59039 -882.01361)"/><path class="cls-1" d="M263.35611,911.56531h-8.561v11.936c0,3.621,2.387,4.115,8.561,3.786v12.348q-12.2235,1.482-17.287-2.223-4.938-3.828-4.938-13.582v-12.265h-6.174v-13.088h6.174v-7.409l13.664-4.116v11.525h8.561Z" transform="translate(-139.59039 -882.01361)"/><path class="cls-2" d="M294.7197,926.46361a4.85871,4.85871,0,1,0,0-9.712h-9.137v9.712Zm-9.137-31.279v9.054h7.573a4.36248,4.36248,0,0,0,4.692-4.527,4.409,4.409,0,0,0-4.692-4.527Zm28.893,27.576c0,5.103-1.729,9.219-5.268,12.265-3.54,3.046-8.232,4.609-14.076,4.609h-24.284v-57.621h22.72c11.524,0,19.014,6.257,19.014,16.381a13.79863,13.79863,0,0,1-5.35,11.442c4.857,2.881,7.244,7.162,7.244,12.924" transform="translate(-139.59039 -882.01361)"/><path class="cls-2" d="M348.96777,919.05641c0-5.022-3.458-8.561-8.314-8.561-4.692,0-8.232,3.539-8.232,8.561,0,5.02,3.54,8.56,8.232,8.56,4.856,0,8.314-3.54,8.314-8.56m-23.872,15.475a21.75951,21.75951,0,0,1,0-30.868,21.43245,21.43245,0,0,1,15.558-6.339,21.16515,21.16515,0,0,1,15.557,6.339,21.75958,21.75958,0,0,1,0,30.868,21.09828,21.09828,0,0,1-15.557,6.256,21.36207,21.36207,0,0,1-15.558-6.256" transform="translate(-139.59039 -882.01361)"/><path class="cls-2" d="M396.96027,919.05641c0-5.022-3.457-8.561-8.314-8.561-4.692,0-8.231,3.539-8.231,8.561,0,5.02,3.539,8.56,8.231,8.56,4.857,0,8.314-3.54,8.314-8.56m-23.872,15.475a21.7619,21.7619,0,0,1,0-30.868,21.43566,21.43566,0,0,1,15.558-6.339,21.16518,21.16518,0,0,1,15.557,6.339,21.75958,21.75958,0,0,1,0,30.868,21.09832,21.09832,0,0,1-15.557,6.256,21.36524,21.36524,0,0,1-15.558-6.256" transform="translate(-139.59039 -882.01361)"/><path class="cls-2" d="M478.03229,914.4464v25.188h-13.747v-23.624c0-3.869-1.728-5.762-5.103-5.762-3.704,0-5.68,2.634-5.68,6.915v22.471h-13.663v-23.624c0-3.869-1.73-5.762-5.187-5.762-3.705,0-5.679,2.634-5.679,6.915v22.471h-13.665v-41.157h13.665v3.868c2.551-3.375,6.255-5.021,11.112-5.021,4.692,0,8.231,1.728,10.536,5.268,2.881-3.54,6.832-5.268,11.936-5.268,9.548,0,15.475,6.503,15.475,17.122" transform="translate(-139.59039 -882.01361)"/></svg>